<?xml version="1.0" encoding="UTF-8" standalone="no"?><!DOCTYPE svg PUBLIC "-//W3C//DTD SVG 1.1//EN" "http://www.w3.org/Graphics/SVG/1.1/DTD/svg11.dtd"><svg width="100%" height="100%" viewBox="0 0 1127 729" version="1.1" xmlns="http://www.w3.org/2000/svg" xmlns:xlink="http://www.w3.org/1999/xlink" xml:space="preserve" xmlns:serif="http://www.serif.com/" style="fill-rule:evenodd;clip-rule:evenodd;stroke-linecap:round;stroke-linejoin:round;stroke-miterlimit:1.5;"><rect id="ArtBoard2" x="-20.02" y="-29.541" width="1280" height="800" style="fill:none;"/><rect x="157.338" y="249.331" width="604.6" height="363.666" style="fill:none;stroke:#000;stroke-width:1px;"/><rect x="157.338" y="199.597" width="604.6" height="35.8" style="fill:none;stroke:#000;stroke-width:1px;"/><rect x="157.338" y="612.997" width="604.6" height="35.8" style="fill:none;stroke:#000;stroke-width:1px;"/><rect x="157.338" y="136.863" width="178.355" height="42.678" style="fill:none;stroke:#000;stroke-width:1px;"/><rect x="157.338" y="83.462" width="601.004" height="42.678" style="fill:#ccc;stroke:#000;stroke-width:1px;"/><rect x="339.945" y="136.863" width="421.993" height="42.678" style="fill:none;stroke:#000;stroke-width:1px;"/><path d="M337.321,249.331l0,166.862" style="fill:none;stroke:#000;stroke-width:1px;"/><path d="M337.321,199.777l0,35.8" style="fill:none;stroke:#000;stroke-width:1px;"/><path d="M341.321,612.997l0,35.8" style="fill:none;stroke:#000;stroke-width:1px;"/><text x="-0.724px" y="167.729px" style="font-family:'Monaco';font-size:24px;">colgroup</text><text x="-0.724px" y="114.463px" style="font-family:'Monaco';font-size:24px;">caption</text><text x="159.954px" y="167.729px" style="font-family:'Monaco';font-size:24px;">col.wi-small</text><text x="159.954px" y="71.154px" style="font-family:'Monaco';font-size:24px;">table.tbl-horizontal</text><text x="350.043px" y="167.729px" style="font-family:'Monaco';font-size:24px;">col.wi-wide</text><text x="411.228px" y="289.216px" style="font-family:'Monaco';font-size:24px;">input.wi-wide</text><text x="349.03px" y="289.216px" style="font-family:'Monaco';font-size:24px;">td</text><g transform="matrix(1,0,0,0.901023,124.102,-659.206)"><text x="36.526px" y="1050.26px" style="font-family:'Monaco';font-size:26.636px;">th</text><g transform="matrix(0.901023,0,0,1,8.36148,0)"><text x="84.479px" y="1050.26px" style="font-family:'Monaco';font-size:26.636px;">(label)</text></g></g><text x="160.751px" y="224.956px" style="font-family:'Monaco';font-size:24px;">th</text><text x="348.07px" y="226.773px" style="font-family:'Monaco';font-size:24px;">th</text><text x="349.03px" y="348.216px" style="font-family:'Monaco';font-size:24px;">td</text><text x="717.04px" y="348.216px" style="font-family:'ArialMT', 'Arial', sans-serif;font-size:29.791px;">kg</text><text x="160.751px" y="348.216px" style="font-family:'Monaco';font-size:24px;">th</text><text x="349.03px" y="400.216px" style="font-family:'Monaco';font-size:24px;">td</text><text x="160.751px" y="400.216px" style="font-family:'Monaco';font-size:24px;">th</text><text x="349.03px" y="640.728px" style="font-family:'Monaco';font-size:24px;">td</text><text x="160.751px" y="450.216px" style="font-family:'Monaco';font-size:24px;">th colspan=2</text><text x="180.592px" y="485.216px" style="font-family:'Monaco';font-size:24px;">span.label.above</text><text x="160.751px" y="640.728px" style="font-family:'Monaco';font-size:24px;">th</text><text x="411.228px" y="346.629px" style="font-family:'Monaco';font-size:24px;">input.wi-wide</text><text x="180.985px" y="519.784px" style="font-family:'Monaco';font-size:24px;">textarea.wi-small-wide</text><text x="411.228px" y="399.451px" style="font-family:'Monaco';font-size:24px;">select.wi-wide</text><text x="-0.084px" y="226.767px" style="font-family:'Monaco';font-size:24px;">thead</text><text x="-0.084px" y="284.479px" style="font-family:'Monaco';font-size:24px;">tbody</text><text x="-0.084px" y="639.193px" style="font-family:'Monaco';font-size:24px;">tfoot</text><rect x="402.449" y="262.952" width="304.914" height="33.685" style="fill:none;stroke:#000;stroke-width:1px;"/><rect x="402.449" y="320.365" width="304.914" height="33.685" style="fill:none;stroke:#000;stroke-width:1px;"/><rect x="174.508" y="494.008" width="532.855" height="109.878" style="fill:none;stroke:#000;stroke-width:1px;"/><path d="M707.363,381.608c0,-4.648 -3.774,-8.421 -8.421,-8.421l-288.072,0c-4.648,0 -8.421,3.773 -8.421,8.421l0,16.842c0,4.648 3.773,8.422 8.421,8.422l288.072,0c4.647,0 8.421,-3.774 8.421,-8.422l0,-16.842Z" style="fill:none;stroke:#000;stroke-width:1px;"/><path id="New" d="M716.63,268.87l21.921,0l-1.462,1.462l-18.998,0l0,24.843l24.844,0l0,-18.998l1.461,-1.461l0,21.92l-27.766,0l0,-27.766Zm28.058,-1.9l-14.175,14.249l1.535,1.534l14.175,-14.248l1.096,1.023l-14.468,14.467l-4.822,1.169l1.169,-4.749l14.467,-14.468l1.023,1.023Zm5.407,-1.242l-2.557,-2.557c-0.292,-0.292 -0.731,-0.292 -1.023,0l-1.68,1.68l3.58,3.581l1.68,-1.681c0.22,-0.292 0.22,-0.731 0,-1.023Z"/><path d="M761.938,310.746l-604.6,0" style="fill:none;stroke:#000;stroke-width:1px;"/><path d="M761.938,364.323l-604.6,0" style="fill:none;stroke:#000;stroke-width:1px;"/><path d="M761.938,415.069l-604.6,0" style="fill:none;stroke:#000;stroke-width:1px;"/><path d="M689.823,401.924l-12.133,-8.712l24.266,0l-12.133,8.712Z" style="fill:none;stroke:#000;stroke-width:1px;"/><path d="M689.823,378.212l12.133,8.712l-24.266,0l12.133,-8.712Z" style="fill:none;stroke:#000;stroke-width:1px;"/><text x="799.631px" y="396.904px" style="font-family:'ArialMT', 'Arial', sans-serif;font-size:20px;">P<tspan x="814.436px 819.367px 831.712px 837.879px 848.978px 855.145px 861.312px 873.657px 881.048px 887.215px 893.383px 904.481px 916.826px 929.171px 940.269px 946.436px 961.242px 967.409px 982.214px 994.559px 1001.95px 1013.05px 1025.39px 1036.49px 1042.66px 1048.83px 1061.17px 1072.27px " y="396.904px 396.904px 396.904px 396.904px 396.904px 396.904px 396.904px 396.904px 396.904px 396.904px 396.904px 396.904px 396.904px 396.904px 396.904px 396.904px 396.904px 396.904px 396.904px 396.904px 396.904px 396.904px 396.904px 396.904px 396.904px 396.904px 396.904px 396.904px ">latz für Icons &amp; Kürzesttext</tspan></text><text x="799.631px" y="167.729px" style="font-family:'ArialMT', 'Arial', sans-serif;font-size:20px;">B<tspan x="814.436px 821.828px 834.172px 839.104px 845.271px 857.616px 869.961px 882.306px 894.651px 906.995px 919.34px 931.685px 944.03px 956.375px 962.542px 968.709px 981.054px 988.446px 994.613px 1009.42px 1021.76px 1034.11px 1039.04px 1045.21px 1057.55px " y="167.729px 167.729px 167.729px 167.729px 167.729px 167.729px 167.729px 167.729px 167.729px 167.729px 167.729px 167.729px 167.729px 167.729px 167.729px 167.729px 167.729px 167.729px 167.729px 167.729px 167.729px 167.729px 167.729px 167.729px 167.729px ">reitenangaben für Spalten</tspan></text><g transform="matrix(1,0,0,1,-42.9489,-1024.75)"><g transform="matrix(1.10985,0,0,1,-92.5568,0)"><text x="842.579px" y="1238.41px" style="font-family:'ArialMT', 'Arial', sans-serif;font-size:20px;">Spalten-Überschriften</text></g><g transform="matrix(1.10985,0,0,1,-92.5568,0)"><text x="842.579px" y="1259.07px" style="font-family:'ArialMT', 'Arial', sans-serif;font-size:20px;">(seltene <tspan x="918.294px 931.634px " y="1259.07px 1259.07px ">Au</tspan>snahme)</text></g></g><text x="799.631px" y="637.877px" style="font-family:'ArialMT', 'Arial', sans-serif;font-size:20px;">S<tspan x="814.436px 826.781px 845.271px 863.761px 876.106px 888.451px 894.618px 902.01px 914.355px 919.286px 931.631px 939.023px 944.086px 958.892px 971.237px 982.335px 994.68px 1007.02px 1019.37px 1037.86px 1050.2px " y="637.877px 637.877px 637.877px 637.877px 637.877px 637.877px 637.877px 637.877px 637.877px 637.877px 637.877px 637.877px 637.877px 637.877px 637.877px 637.877px 637.877px 637.877px 637.877px 637.877px 637.877px ">ummen (hier Ausnahme)</tspan></text><text x="799.631px" y="113.873px" style="font-family:'ArialMT', 'Arial', sans-serif;font-size:20px;">Ü<tspan x="815.661px 828.005px 840.35px 847.742px 858.841px 869.939px 882.284px 889.676px 894.607px 900.774px 906.941px 913.108px 925.453px 937.798px 945.19px 950.996px 962.338px 974.683px 987.027px 999.372px 1004.3px 1009.24px 1021.58px 1027.75px 1035.14px 1047.48px 1059.83px " y="113.873px 113.873px 113.873px 113.873px 113.873px 113.873px 113.873px 113.873px 113.873px 113.873px 113.873px 113.873px 113.873px 113.873px 113.873px 113.873px 113.873px 113.873px 113.873px 113.873px 113.873px 113.873px 113.873px 113.873px 113.873px 113.873px 113.873px ">berschrift der Tabelle (h3)</tspan></text><g transform="matrix(1,0,0,1,-43.8507,-718.632)"><g transform="matrix(1.10985,0,0,1,-92.5568,0)"><text x="842.579px" y="1238.41px" style="font-family:'ArialMT', 'Arial', sans-serif;font-size:20px;">Kombinierte Breitenangabe für</text></g><g transform="matrix(1.10985,0,0,1,-92.5568,0)"><text x="842.579px" y="1259.07px" style="font-family:'ArialMT', 'Arial', sans-serif;font-size:20px;">rechtsbündige <tspan x="972.786px 986.126px " y="1259.07px 1259.07px ">Au</tspan>srichtung</text></g></g><path d="M782.625,389.924l-48.47,0" style="fill:none;stroke:#000;stroke-width:3px;stroke-dasharray:3,3;"/><path d="M792.203,512.612l-256.03,0" style="fill:none;stroke:#000;stroke-width:3px;stroke-dasharray:3,3;"/><path d="M792.203,479.248l-346.362,0" style="fill:none;stroke:#000;stroke-width:3px;stroke-dasharray:3,3;"/><rect x="142.982" y="44.179" width="631.009" height="617.19" style="fill:none;stroke:#000;stroke-width:1px;"/><text x="348.055px" y="703.454px" style="font-family:'ArialMT', 'Arial', sans-serif;font-size:20px;">Datenspalte(n)</text><g transform="matrix(1,0,0,1,-204.447,-858.983)"><text x="372.075px" y="1562.44px" style="font-family:'ArialMT', 'Arial', sans-serif;font-size:20px;">Feldbeschriftungen</text><text x="372.075px" y="1583.09px" style="font-family:'ArialMT', 'Arial', sans-serif;font-size:20px;">(Label)</text></g><g transform="matrix(1,0,0,1,-72.2167,-1057.07)"><text x="870.902px" y="1522.05px" style="font-family:'ArialMT', 'Arial', sans-serif;font-size:20px;">Feldbeschriftung (Block) oberhalb für</text><text x="870.902px" y="1542.7px" style="font-family:'ArialMT', 'Arial', sans-serif;font-size:20px;">kombinierte <tspan x="978.734px 992.074px " y="1542.7px 1542.7px ">An</tspan>lage in einem Feld</text></g><text x="-2.197px" y="21.475px" style="font-family:'Arial-BoldMT', 'Arial', sans-serif;font-weight:700;font-size:30px;">Horizontale T<tspan x="185.581px 202.266px " y="21.475px 21.475px ">ab</tspan>elle mit <tspan x="331.187px 352.852px " y="21.475px 21.475px ">Ab</tspan>messungen und Formular-Elementen</text><path d="M252.599,681.288l0,-32.491" style="fill:none;stroke:#000;stroke-width:3px;stroke-dasharray:3,3;"/><path d="M410.002,681.288l0,-32.491" style="fill:none;stroke:#000;stroke-width:3px;stroke-dasharray:3,3;"/><path d="M792.203,512.612l-256.03,0" style="fill:none;stroke:#000;stroke-width:3px;stroke-dasharray:3,3;"/></svg>