<?xml version="1.0" encoding="UTF-8" standalone="no"?><!DOCTYPE svg PUBLIC "-//W3C//DTD SVG 1.1//EN" "http://www.w3.org/Graphics/SVG/1.1/DTD/svg11.dtd"><svg width="100%" height="100%" viewBox="0 0 1280 800" version="1.1" xmlns="http://www.w3.org/2000/svg" xmlns:xlink="http://www.w3.org/1999/xlink" xml:space="preserve" xmlns:serif="http://www.serif.com/" style="fill-rule:evenodd;clip-rule:evenodd;stroke-linecap:round;stroke-linejoin:round;stroke-miterlimit:1.5;"><rect id="ArtBoard2" x="0" y="0" width="1280" height="800" style="fill:none;"/><rect x="177.358" y="278.872" width="604.6" height="363.666" style="fill:none;stroke:#000;stroke-width:1px;"/><rect x="177.358" y="229.138" width="604.6" height="35.8" style="fill:none;stroke:#000;stroke-width:1px;"/><rect x="177.358" y="642.538" width="604.6" height="35.8" style="fill:none;stroke:#000;stroke-width:1px;"/><rect x="177.358" y="166.404" width="178.355" height="42.678" style="fill:none;stroke:#000;stroke-width:1px;"/><rect x="177.358" y="113.003" width="601.004" height="42.678" style="fill:#ccc;stroke:#000;stroke-width:1px;"/><rect x="359.965" y="166.404" width="421.993" height="42.678" style="fill:none;stroke:#000;stroke-width:1px;"/><path d="M357.341,278.872l0,166.862" style="fill:none;stroke:#000;stroke-width:1px;"/><path d="M357.341,229.318l0,35.8" style="fill:none;stroke:#000;stroke-width:1px;"/><path d="M361.341,642.538l0,35.8" style="fill:none;stroke:#000;stroke-width:1px;"/><text x="19.296px" y="197.27px" style="font-family:'Monaco';font-size:24px;">colgroup</text><text x="19.296px" y="144.004px" style="font-family:'Monaco';font-size:24px;">caption</text><text x="179.975px" y="197.27px" style="font-family:'Monaco';font-size:24px;">col.wi-small</text><text x="179.975px" y="100.695px" style="font-family:'Monaco';font-size:24px;">table.tbl-horizontal</text><text x="370.063px" y="197.27px" style="font-family:'Monaco';font-size:24px;">col.wi-wide</text><text x="431.249px" y="318.757px" style="font-family:'Monaco';font-size:24px;">input.wi-wide</text><text x="369.05px" y="318.757px" style="font-family:'Monaco';font-size:24px;">td</text><g transform="matrix(1,0,0,0.901023,144.122,-629.664)"><text x="36.526px" y="1050.26px" style="font-family:'Monaco';font-size:26.636px;">th</text><g transform="matrix(0.901023,0,0,1,8.36148,0)"><text x="84.479px" y="1050.26px" style="font-family:'Monaco';font-size:26.636px;">(label)</text></g></g><text x="180.771px" y="254.497px" style="font-family:'Monaco';font-size:24px;">th</text><text x="368.09px" y="256.314px" style="font-family:'Monaco';font-size:24px;">th</text><text x="369.05px" y="377.757px" style="font-family:'Monaco';font-size:24px;">td</text><text x="737.061px" y="377.757px" style="font-family:'ArialMT', 'Arial', sans-serif;font-size:29.791px;">kg</text><text x="180.771px" y="377.757px" style="font-family:'Monaco';font-size:24px;">th</text><text x="369.05px" y="429.757px" style="font-family:'Monaco';font-size:24px;">td</text><text x="180.771px" y="429.757px" style="font-family:'Monaco';font-size:24px;">th</text><text x="369.05px" y="670.269px" style="font-family:'Monaco';font-size:24px;">td</text><text x="180.771px" y="479.757px" style="font-family:'Monaco';font-size:24px;">th colspan=2</text><text x="200.612px" y="514.757px" style="font-family:'Monaco';font-size:24px;">span.label.above</text><text x="180.771px" y="670.269px" style="font-family:'Monaco';font-size:24px;">th</text><text x="431.249px" y="376.17px" style="font-family:'Monaco';font-size:24px;">input.wi-wide</text><text x="201.005px" y="549.325px" style="font-family:'Monaco';font-size:24px;">textarea.wi-small-wide</text><text x="431.249px" y="428.992px" style="font-family:'Monaco';font-size:24px;">select.wi-wide</text><text x="19.936px" y="256.308px" style="font-family:'Monaco';font-size:24px;">thead</text><text x="19.936px" y="314.02px" style="font-family:'Monaco';font-size:24px;">tbody</text><text x="19.936px" y="668.734px" style="font-family:'Monaco';font-size:24px;">tfoot</text><rect x="422.469" y="292.493" width="304.914" height="33.685" style="fill:none;stroke:#000;stroke-width:1px;"/><rect x="422.469" y="349.906" width="304.914" height="33.685" style="fill:none;stroke:#000;stroke-width:1px;"/><rect x="194.529" y="523.549" width="532.855" height="109.878" style="fill:none;stroke:#000;stroke-width:1px;"/><path d="M727.383,411.149c0,-4.648 -3.773,-8.421 -8.421,-8.421l-288.072,0c-4.647,0 -8.421,3.773 -8.421,8.421l0,16.842c0,4.648 3.774,8.422 8.421,8.422l288.072,0c4.648,0 8.421,-3.774 8.421,-8.422l0,-16.842Z" style="fill:none;stroke:#000;stroke-width:1px;"/><path id="New" d="M736.65,298.411l21.921,0l-1.461,1.462l-18.998,0l0,24.843l24.843,0l0,-18.998l1.461,-1.461l0,21.92l-27.766,0l0,-27.766Zm28.059,-1.9l-14.176,14.249l1.535,1.534l14.175,-14.248l1.096,1.023l-14.467,14.467l-4.823,1.169l1.169,-4.749l14.468,-14.468l1.023,1.023Zm5.407,-1.242l-2.558,-2.557c-0.292,-0.292 -0.73,-0.292 -1.023,0l-1.68,1.68l3.58,3.581l1.681,-1.681c0.219,-0.292 0.219,-0.731 0,-1.023Z"/><path d="M781.958,340.287l-604.6,0" style="fill:none;stroke:#000;stroke-width:1px;"/><path d="M781.958,393.864l-604.6,0" style="fill:none;stroke:#000;stroke-width:1px;"/><path d="M781.958,444.61l-604.6,0" style="fill:none;stroke:#000;stroke-width:1px;"/><path d="M709.844,431.465l-12.133,-8.712l24.265,0l-12.132,8.712Z" style="fill:none;stroke:#000;stroke-width:1px;"/><path d="M709.844,407.753l12.132,8.712l-24.265,0l12.133,-8.712Z" style="fill:none;stroke:#000;stroke-width:1px;"/><text x="819.651px" y="426.445px" style="font-family:'ArialMT', 'Arial', sans-serif;font-size:20px;">P<tspan x="834.456px 839.387px 851.732px 857.899px 868.998px 875.165px 881.332px 893.677px 901.069px 907.236px 913.403px 924.501px 936.846px 949.191px 960.29px 966.457px 981.262px 987.429px 1002.23px 1014.58px 1021.97px 1033.07px 1045.41px 1056.51px 1062.68px 1068.85px 1081.19px 1092.29px " y="426.445px 426.445px 426.445px 426.445px 426.445px 426.445px 426.445px 426.445px 426.445px 426.445px 426.445px 426.445px 426.445px 426.445px 426.445px 426.445px 426.445px 426.445px 426.445px 426.445px 426.445px 426.445px 426.445px 426.445px 426.445px 426.445px 426.445px 426.445px ">latz für Icons &amp; Kürzesttext</tspan></text><text x="819.651px" y="197.27px" style="font-family:'ArialMT', 'Arial', sans-serif;font-size:20px;">B<tspan x="834.456px 841.848px 854.193px 859.124px 865.291px 877.636px 889.981px 902.326px 914.671px 927.016px 939.361px 951.706px 964.05px 976.395px 982.562px 988.729px 1001.07px 1008.47px 1014.63px 1029.44px 1041.78px 1054.13px 1059.06px 1065.23px 1077.57px " y="197.27px 197.27px 197.27px 197.27px 197.27px 197.27px 197.27px 197.27px 197.27px 197.27px 197.27px 197.27px 197.27px 197.27px 197.27px 197.27px 197.27px 197.27px 197.27px 197.27px 197.27px 197.27px 197.27px 197.27px 197.27px ">reitenangaben für Spalten</tspan></text><g transform="matrix(1,0,0,1,-22.9286,-995.21)"><g transform="matrix(1.10985,0,0,1,-92.5568,0)"><text x="842.579px" y="1238.41px" style="font-family:'ArialMT', 'Arial', sans-serif;font-size:20px;">Spalten-Überschriften</text></g><g transform="matrix(1.10985,0,0,1,-92.5568,0)"><text x="842.579px" y="1259.07px" style="font-family:'ArialMT', 'Arial', sans-serif;font-size:20px;">(seltene <tspan x="918.294px 931.634px " y="1259.07px 1259.07px ">Au</tspan>snahme)</text></g></g><text x="819.651px" y="667.418px" style="font-family:'ArialMT', 'Arial', sans-serif;font-size:20px;">S<tspan x="834.456px 846.801px 865.291px 883.781px 896.126px 908.471px 914.638px 922.03px 934.375px 939.306px 951.651px 959.043px 964.107px 978.912px 991.257px 1002.36px 1014.7px 1027.05px 1039.39px 1057.88px 1070.22px " y="667.418px 667.418px 667.418px 667.418px 667.418px 667.418px 667.418px 667.418px 667.418px 667.418px 667.418px 667.418px 667.418px 667.418px 667.418px 667.418px 667.418px 667.418px 667.418px 667.418px 667.418px ">ummen (hier Ausnahme)</tspan></text><text x="819.651px" y="143.414px" style="font-family:'ArialMT', 'Arial', sans-serif;font-size:20px;">Ü<tspan x="835.681px 848.026px 860.371px 867.762px 878.861px 889.959px 902.304px 909.696px 914.627px 920.794px 926.962px 933.129px 945.473px 957.818px 965.21px 971.016px 982.358px 994.703px 1007.05px 1019.39px 1024.32px 1029.26px 1041.6px 1047.77px 1055.16px 1067.5px 1079.85px " y="143.414px 143.414px 143.414px 143.414px 143.414px 143.414px 143.414px 143.414px 143.414px 143.414px 143.414px 143.414px 143.414px 143.414px 143.414px 143.414px 143.414px 143.414px 143.414px 143.414px 143.414px 143.414px 143.414px 143.414px 143.414px 143.414px 143.414px ">berschrift der Tabelle (h3)</tspan></text><g transform="matrix(1,0,0,1,-23.8305,-689.091)"><g transform="matrix(1.10985,0,0,1,-92.5568,0)"><text x="842.579px" y="1238.41px" style="font-family:'ArialMT', 'Arial', sans-serif;font-size:20px;">Kombinierte Breitenangabe für</text></g><g transform="matrix(1.10985,0,0,1,-92.5568,0)"><text x="842.579px" y="1259.07px" style="font-family:'ArialMT', 'Arial', sans-serif;font-size:20px;">rechtsbündige <tspan x="972.786px 986.126px " y="1259.07px 1259.07px ">Au</tspan>srichtung</text></g></g><path d="M802.645,419.465l-48.47,0" style="fill:none;stroke:#000;stroke-width:3px;stroke-dasharray:3,3;"/><path d="M812.223,542.153l-256.03,0" style="fill:none;stroke:#000;stroke-width:3px;stroke-dasharray:3,3;"/><path d="M812.223,508.789l-346.362,0" style="fill:none;stroke:#000;stroke-width:3px;stroke-dasharray:3,3;"/><rect x="163.002" y="73.72" width="631.009" height="617.19" style="fill:none;stroke:#000;stroke-width:1px;"/><text x="368.075px" y="732.995px" style="font-family:'ArialMT', 'Arial', sans-serif;font-size:20px;">Datenspalte(n)</text><g transform="matrix(1,0,0,1,-184.427,-829.442)"><text x="372.075px" y="1562.44px" style="font-family:'ArialMT', 'Arial', sans-serif;font-size:20px;">Feldbeschriftungen</text><text x="372.075px" y="1583.09px" style="font-family:'ArialMT', 'Arial', sans-serif;font-size:20px;">(Label)</text></g><g transform="matrix(1,0,0,1,-52.1965,-1027.53)"><text x="870.902px" y="1522.05px" style="font-family:'ArialMT', 'Arial', sans-serif;font-size:20px;">Feldbeschriftung (Block) oberhalb für</text><text x="870.902px" y="1542.7px" style="font-family:'ArialMT', 'Arial', sans-serif;font-size:20px;">kombinierte <tspan x="978.734px 992.074px " y="1542.7px 1542.7px ">An</tspan>lage in einem Feld</text></g><text x="17.823px" y="51.016px" style="font-family:'Arial-BoldMT', 'Arial', sans-serif;font-weight:700;font-size:30px;">Horizontale T<tspan x="205.601px 222.286px " y="51.016px 51.016px ">ab</tspan>elle mit <tspan x="351.207px 372.872px " y="51.016px 51.016px ">Ab</tspan>messungen und Formular-Elementen</text><path d="M272.619,710.829l0,-32.491" style="fill:none;stroke:#000;stroke-width:3px;stroke-dasharray:3,3;"/><path d="M430.023,710.829l0,-32.491" style="fill:none;stroke:#000;stroke-width:3px;stroke-dasharray:3,3;"/><path d="M812.223,542.153l-256.03,0" style="fill:none;stroke:#000;stroke-width:3px;stroke-dasharray:3,3;"/></svg>